<?xml version="1.0" standalone="no"?><!DOCTYPE svg PUBLIC "-//W3C//DTD SVG 1.1//EN" "http://www.w3.org/Graphics/SVG/1.1/DTD/svg11.dtd"><svg xmlns:xlink="http://www.w3.org/1999/xlink" version="1.1" style="font-family:'lucida grande', 'lucida sans unicode', arial, helvetica, sans-serif;font-size:12px;" xmlns="http://www.w3.org/2000/svg" width="600" height="400"><desc>Created with Highcharts 4.2.7</desc><defs><clipPath id="highcharts-31"><rect x="1" y="1" width="526" height="297"></rect></clipPath></defs><rect x="62" y="34" width="528" height="299" fill="#ffffff"></rect><path fill="rgb(255, 255, 255)" fill-opacity=" .5" d="M 62 333.5 L 590 333.5 590 273.5 62 273.5"></path><path fill="rgb(255, 255, 255)" fill-opacity=" .5" d="M 62 213.5 L 590 213.5 590 154.5 62 154.5"></path><path fill="rgb(255, 255, 255)" fill-opacity=" .5" d="M 62 94.5 L 590 94.5 590 34.5 62 34.5"></path><g class="highcharts-grid"></g><g class="highcharts-grid"><path fill="none" d="M 62 333.5 L 590 333.5" stroke="#C0C0C0" stroke-width="1" opacity="1"></path><path fill="none" d="M 62 273.5 L 590 273.5" stroke="#C0C0C0" stroke-width="1" opacity="1"></path><path fill="none" d="M 62 213.5 L 590 213.5" stroke="#C0C0C0" stroke-width="1" opacity="1"></path><path fill="none" d="M 62 154.5 L 590 154.5" stroke="#C0C0C0" stroke-width="1" opacity="1"></path><path fill="none" d="M 62 94.5 L 590 94.5" stroke="#C0C0C0" stroke-width="1" opacity="1"></path><path fill="none" d="M 62 33.5 L 590 33.5" stroke="#C0C0C0" stroke-width="1" opacity="1"></path></g><rect x="62" y="34" width="528" height="299" stroke="#026FC1" stroke-width="2" fill="none"></rect><g class="highcharts-axis"><path fill="none" d="M 167.5 333 L 167.5 343" stroke="#C0D0E0" stroke-width="1" opacity="1"></path><path fill="none" d="M 272.5 333 L 272.5 343" stroke="#C0D0E0" stroke-width="1" opacity="1"></path><path fill="none" d="M 378.5 333 L 378.5 343" stroke="#C0D0E0" stroke-width="1" opacity="1"></path><path fill="none" d="M 483.5 333 L 483.5 343" stroke="#C0D0E0" stroke-width="1" opacity="1"></path><path fill="none" d="M 590.5 333 L 590.5 343" stroke="#C0D0E0" stroke-width="1" opacity="1"></path><path fill="none" d="M 61.5 333 L 61.5 343" stroke="#C0D0E0" stroke-width="1" opacity="1"></path><path fill="none" d="M 62 333.5 L 590 333.5" stroke="#C0D0E0" stroke-width="1"></path></g><g class="highcharts-axis"><path fill="none" d="M 62 333.5 L 52 333.5" stroke="#C0D0E0" stroke-width="1" opacity="1"></path><path fill="none" d="M 62 273.5 L 52 273.5" stroke="#C0D0E0" stroke-width="1" opacity="1"></path><path fill="none" d="M 62 213.5 L 52 213.5" stroke="#C0D0E0" stroke-width="1" opacity="1"></path><path fill="none" d="M 62 154.5 L 52 154.5" stroke="#C0D0E0" stroke-width="1" opacity="1"></path><path fill="none" d="M 62 94.5 L 52 94.5" stroke="#C0D0E0" stroke-width="1" opacity="1"></path><path fill="none" d="M 62 33.5 L 52 33.5" stroke="#C0D0E0" stroke-width="1" opacity="1"></path><text x="19" text-anchor="middle" transform="translate(0,0) rotate(270 19 183.5)" class=" highcharts-yaxis-title" style="color:#000000;font-size:10px;font-family:'arial', sans-serif;text-transform:none;font-weight:normal;fill:#000000;" y="183.5"><tspan>Time (s)</tspan></text></g><g class="highcharts-series-group"><g class="highcharts-series highcharts-series-0" transform="translate(62,34) scale(1 1)" clip-path="url(#highcharts-31)"><rect x="26.5" y="295.5" width="51" height="4" stroke="#FFFFFF" stroke-width="1" fill="#50B432" rx="0" ry="0"></rect><rect x="132.5" y="289.5" width="51" height="10" stroke="#FFFFFF" stroke-width="1" fill="#ED561B" rx="0" ry="0"></rect><rect x="238.5" y="251.5" width="51" height="48" stroke="#FFFFFF" stroke-width="1" fill="#eff13d" rx="0" ry="0"></rect><rect x="343.5" y="213.5" width="51" height="86" stroke="#FFFFFF" stroke-width="1" fill="#1ca5ba" rx="0" ry="0"></rect><rect x="449.5" y="28.5" width="51" height="271" stroke="#FFFFFF" stroke-width="1" fill="#9a248e" rx="0" ry="0"></rect></g><g class="highcharts-markers highcharts-series-0" transform="translate(62,34) scale(1 1)" clip-path="none"></g><g class="highcharts-series highcharts-series-1" transform="translate(62,34) scale(1 1)" clip-path="url(#highcharts-31)"></g><g class="highcharts-markers highcharts-series-1" transform="translate(62,34) scale(1 1)" clip-path="none"></g></g><text x="300" text-anchor="middle" class="highcharts-title" style="color:#000000;font-size:10px;font-family:'arial', sans-serif;text-transform:none;fill:#000000;width:536px;" y="17"><tspan>FP Benchmark</tspan></text><g class="highcharts-data-labels highcharts-series-0" transform="translate(62,34) scale(1 1)" opacity="1"><g style="cursor:pointer;" transform="translate(44,277)"><text x="5" style="font-size:10px;font-weight:bold;font-family:'arial', sans-serif;color:#000000;text-shadow:0 0 6px #ffffff, 0 0 3px #ffffff;fill:#000000;text-rendering:geometricprecision;" y="15"><tspan>3</tspan></text></g><g style="cursor:pointer;" transform="translate(150,271)"><text x="5" style="font-size:10px;font-weight:bold;font-family:'arial', sans-serif;color:#000000;text-shadow:0 0 6px #ffffff, 0 0 3px #ffffff;fill:#000000;text-rendering:geometricprecision;" y="15"><tspan>8</tspan></text></g><g style="cursor:pointer;" transform="translate(253,233)"><text x="5" style="font-size:10px;font-weight:bold;font-family:'arial', sans-serif;color:#000000;text-shadow:0 0 6px #ffffff, 0 0 3px #ffffff;fill:#000000;text-rendering:geometricprecision;" y="15"><tspan>40</tspan></text></g><g style="cursor:pointer;" transform="translate(358,195)"><text x="5" style="font-size:10px;font-weight:bold;font-family:'arial', sans-serif;color:#000000;text-shadow:0 0 6px #ffffff, 0 0 3px #ffffff;fill:#000000;text-rendering:geometricprecision;" y="15"><tspan>72</tspan></text></g><g style="cursor:pointer;" transform="translate(461,10)"><text x="5" style="font-size:10px;font-weight:bold;font-family:'arial', sans-serif;color:#000000;text-shadow:0 0 6px #ffffff, 0 0 3px #ffffff;fill:#000000;text-rendering:geometricprecision;" y="15"><tspan>227</tspan></text></g></g><g class="highcharts-data-labels highcharts-series-1" transform="translate(62,34) scale(1 1)" opacity="1"></g><g class="highcharts-legend" transform="translate(268,362)"><g><g><g class="highcharts-legend-item" transform="translate(8,3)"><text x="21" style="color:#333;font-size:9pt;font-weight:normal;cursor:pointer;font-family:'lucida grande','lucida sans unicode',arial,helvetica,sans-serif;text-transform:none;fill:#333;" text-anchor="start" y="15">Time</text><rect x="0" y="4" width="16" height="12" fill="#CCC"></rect></g></g></g></g><g class="highcharts-axis-labels highcharts-xaxis-labels"><text x="114.8" style="color:#000000;cursor:default;font-size:10px;font-family:'arial', sans-serif;text-transform:none;font-weight:normal;fill:#000000;" text-anchor="middle" transform="translate(0,0)" y="351" opacity="1"><tspan>GHC x32</tspan></text><text x="220.39999999999998" style="color:#000000;cursor:default;font-size:10px;font-family:'arial', sans-serif;text-transform:none;font-weight:normal;fill:#000000;" text-anchor="middle" transform="translate(0,0)" y="351" opacity="1"><tspan>GHC x64</tspan></text><text x="326" style="color:#000000;cursor:default;font-size:10px;font-family:'arial', sans-serif;text-transform:none;font-weight:normal;fill:#000000;" text-anchor="middle" transform="translate(0,0)" y="351" opacity="1">Clean</text><text x="431.59999999999997" style="color:#000000;cursor:default;font-size:10px;font-family:'arial', sans-serif;text-transform:none;font-weight:normal;fill:#000000;" text-anchor="middle" transform="translate(0,0)" y="351" opacity="1">Ocaml</text><text x="537.2" style="color:#000000;cursor:default;font-size:10px;font-family:'arial', sans-serif;text-transform:none;font-weight:normal;fill:#000000;" text-anchor="middle" transform="translate(0,0)" y="351" opacity="1">F#</text></g><g class="highcharts-axis-labels highcharts-yaxis-labels"><text x="47" style="color:#000000;cursor:default;font-size:10px;font-family:'arial', sans-serif;text-transform:none;font-weight:normal;fill:#000000;width:188px;text-overflow:clip;" text-anchor="end" transform="translate(0,0)" y="339" opacity="1"><tspan>0</tspan></text><text x="47" style="color:#000000;cursor:default;font-size:10px;font-family:'arial', sans-serif;text-transform:none;font-weight:normal;fill:#000000;width:188px;text-overflow:clip;" text-anchor="end" transform="translate(0,0)" y="279" opacity="1"><tspan>50</tspan></text><text x="47" style="color:#000000;cursor:default;font-size:10px;font-family:'arial', sans-serif;text-transform:none;font-weight:normal;fill:#000000;width:188px;text-overflow:clip;" text-anchor="end" transform="translate(0,0)" y="219" opacity="1"><tspan>100</tspan></text><text x="47" style="color:#000000;cursor:default;font-size:10px;font-family:'arial', sans-serif;text-transform:none;font-weight:normal;fill:#000000;width:188px;text-overflow:clip;" text-anchor="end" transform="translate(0,0)" y="159" opacity="1"><tspan>150</tspan></text><text x="47" style="color:#000000;cursor:default;font-size:10px;font-family:'arial', sans-serif;text-transform:none;font-weight:normal;fill:#000000;width:188px;text-overflow:clip;" text-anchor="end" transform="translate(0,0)" y="99" opacity="1"><tspan>200</tspan></text><text x="47" style="color:#000000;cursor:default;font-size:10px;font-family:'arial', sans-serif;text-transform:none;font-weight:normal;fill:#000000;width:188px;text-overflow:clip;" text-anchor="end" transform="translate(0,0)" y="40" opacity="1"><tspan>250</tspan></text></g><g class="highcharts-tooltip" display="none" style="cursor:default;padding:0;pointer-events:none;white-space:nowrap;" transform="translate(0,0)"><path fill="none" d="M 3.5 0.5 L 13.5 0.5 C 16.5 0.5 16.5 0.5 16.5 3.5 L 16.5 13.5 C 16.5 16.5 16.5 16.5 13.5 16.5 L 3.5 16.5 C 0.5 16.5 0.5 16.5 0.5 13.5 L 0.5 3.5 C 0.5 0.5 0.5 0.5 3.5 0.5"  stroke="black" stroke-opacity="0.049999999999999996" stroke-width="5" transform="translate(1, 1)"></path><path fill="none" d="M 3.5 0.5 L 13.5 0.5 C 16.5 0.5 16.5 0.5 16.5 3.5 L 16.5 13.5 C 16.5 16.5 16.5 16.5 13.5 16.5 L 3.5 16.5 C 0.5 16.5 0.5 16.5 0.5 13.5 L 0.5 3.5 C 0.5 0.5 0.5 0.5 3.5 0.5"  stroke="black" stroke-opacity="0.09999999999999999" stroke-width="3" transform="translate(1, 1)"></path><path fill="none" d="M 3.5 0.5 L 13.5 0.5 C 16.5 0.5 16.5 0.5 16.5 3.5 L 16.5 13.5 C 16.5 16.5 16.5 16.5 13.5 16.5 L 3.5 16.5 C 0.5 16.5 0.5 16.5 0.5 13.5 L 0.5 3.5 C 0.5 0.5 0.5 0.5 3.5 0.5"  stroke="black" stroke-opacity="0.15" stroke-width="1" transform="translate(1, 1)"></path><path fill="rgb(255, 255, 255)" fill-opacity=" 0.85" d="M 3.5 0.5 L 13.5 0.5 C 16.5 0.5 16.5 0.5 16.5 3.5 L 16.5 13.5 C 16.5 16.5 16.5 16.5 13.5 16.5 L 3.5 16.5 C 0.5 16.5 0.5 16.5 0.5 13.5 L 0.5 3.5 C 0.5 0.5 0.5 0.5 3.5 0.5"></path><text x="8" style="font-size:12px;color:#000000;fill:#000000;" y="20"></text></g><text x="590" text-anchor="end" style="cursor:pointer;color:#909090;font-size:9px;fill:#909090;" y="395">meta-chart.com</text></svg>